<svg width="192" height="192" viewBox="0 0 192 192" xmlns="http://www.w3.org/2000/svg">
  <defs>
    <linearGradient id="cellGradient" x1="0%" y1="0%" x2="100%" y2="100%">
      <stop offset="0%" style="stop-color:#00d4ff;stop-opacity:1" />
      <stop offset="50%" style="stop-color:#ff6b6b;stop-opacity:1" />
      <stop offset="100%" style="stop-color:#4ecdc4;stop-opacity:1" />
    </linearGradient>
    <radialGradient id="nucleusGradient" cx="50%" cy="50%" r="50%">
      <stop offset="0%" style="stop-color:#ffffff;stop-opacity:0.8" />
      <stop offset="100%" style="stop-color:#00d4ff;stop-opacity:0.3" />
    </radialGradient>
  </defs>
  
  <!-- Background -->
  <rect width="192" height="192" rx="24" fill="#1a1a2e"/>
  
  <!-- Cell membrane -->
  <circle cx="96" cy="96" r="80" fill="url(#cellGradient)" opacity="0.8"/>
  <circle cx="96" cy="96" r="75" fill="none" stroke="#ffffff" stroke-width="2" opacity="0.6"/>
  
  <!-- Nucleus -->
  <circle cx="96" cy="96" r="35" fill="url(#nucleusGradient)"/>
  <circle cx="96" cy="96" r="30" fill="none" stroke="#00d4ff" stroke-width="1.5" opacity="0.8"/>
  
  <!-- Nucleolus -->
  <circle cx="96" cy="96" r="12" fill="#ff6b6b" opacity="0.9"/>
  
  <!-- Organelles -->
  <ellipse cx="70" cy="70" rx="8" ry="12" fill="#4ecdc4" opacity="0.7" transform="rotate(45 70 70)"/>
  <ellipse cx="122" cy="70" rx="6" ry="10" fill="#4ecdc4" opacity="0.7" transform="rotate(-30 122 70)"/>
  <ellipse cx="70" cy="122" rx="7" ry="11" fill="#4ecdc4" opacity="0.7" transform="rotate(60 70 122)"/>
  <ellipse cx="122" cy="122" rx="9" ry="13" fill="#4ecdc4" opacity="0.7" transform="rotate(-45 122 122)"/>
  
  <!-- Ribosomes -->
  <circle cx="60" cy="85" r="3" fill="#ffffff" opacity="0.8"/>
  <circle cx="132" cy="85" r="3" fill="#ffffff" opacity="0.8"/>
  <circle cx="85" cy="60" r="3" fill="#ffffff" opacity="0.8"/>
  <circle cx="107" cy="132" r="3" fill="#ffffff" opacity="0.8"/>
  <circle cx="75" cy="107" r="3" fill="#ffffff" opacity="0.8"/>
  <circle cx="117" cy="75" r="3" fill="#ffffff" opacity="0.8"/>
  
  <!-- DNA strands -->
  <path d="M 85 90 Q 90 85 95 90 Q 100 95 105 90" stroke="#ff6b6b" stroke-width="2" fill="none" opacity="0.6"/>
  <path d="M 87 102 Q 92 97 97 102 Q 102 107 107 102" stroke="#ff6b6b" stroke-width="2" fill="none" opacity="0.6"/>
</svg>